<svg id="Layer_1" data-name="Layer 1" xmlns="http://www.w3.org/2000/svg" viewBox="0 0 118.3 154.86"><defs><style>.cls-1{fill:#132759;stroke:#fff;stroke-miterlimit:10;stroke-width:5px;}.cls-2,.cls-3{fill:#fff;}.cls-3{font-size:23.12px;letter-spacing:0.03em;}.cls-3,.cls-4{font-family:HelveticaNeueCyr-Bold, HelveticaNeueCyr;font-weight:700;}.cls-4{font-size:191.42px;fill:#fff4e2;letter-spacing:0.03em;}</style></defs><title>navigation bar</title><circle class="cls-1" cx="59.15" cy="59.15" r="56.65"/><path class="cls-2" d="M71.57,39.28H46.73a7.47,7.47,0,0,0-7.45,7.45V71.57A7.46,7.46,0,0,0,46.73,79H71.57A7.44,7.44,0,0,0,79,71.57V46.73A7.46,7.46,0,0,0,71.57,39.28Zm-24.84,5H71.57a2.49,2.49,0,0,1,2.49,2.48V71.57a2.52,2.52,0,0,1-.73,1.76L58.87,58.87a6.62,6.62,0,0,0-9.37,0l-5.25,5.25V46.73A2.48,2.48,0,0,1,46.73,44.25Z"/><circle class="cls-2" cx="64.95" cy="51.7" r="4.14"/><text class="cls-3" transform="translate(7.65 149.91)">artworks</text><text class="cls-4" transform="translate(-434.62 -27.98)">#FFF4E2</text></svg>