<svg id="Layer_1" data-name="Layer 1" xmlns="http://www.w3.org/2000/svg" viewBox="0 0 113.3 152.36"><defs><style>.cls-1,.cls-3{fill:#fff;}.cls-2{fill:#132759;}.cls-3{font-size:23.12px;letter-spacing:0.03em;}.cls-3,.cls-4{font-family:HelveticaNeueCyr-Bold, HelveticaNeueCyr;font-weight:700;}.cls-4{font-size:191.42px;fill:#fff4e2;letter-spacing:0.03em;}</style></defs><title>navigation bar</title><circle class="cls-1" cx="56.65" cy="56.65" r="56.65"/><path class="cls-2" d="M69.07,36.78H44.23a7.47,7.47,0,0,0-7.45,7.45V69.07a7.46,7.46,0,0,0,7.45,7.45H69.07a7.44,7.44,0,0,0,7.45-7.45V44.23A7.46,7.46,0,0,0,69.07,36.78Zm-24.84,5H69.07a2.49,2.49,0,0,1,2.49,2.48V69.07a2.52,2.52,0,0,1-.73,1.76L56.37,56.37a6.62,6.62,0,0,0-9.37,0l-5.25,5.25V44.23A2.48,2.48,0,0,1,44.23,41.75Z"/><circle class="cls-2" cx="62.45" cy="49.2" r="4.14"/><text class="cls-3" transform="translate(5.15 147.41)">artworks</text><text class="cls-4" transform="translate(-103.24 -30.48)">#FFF4E2</text></svg>