<svg id="Layer_1" data-name="Layer 1" xmlns="http://www.w3.org/2000/svg" viewBox="0 0 118.3 154.86"><defs><style>.cls-1{fill:#132759;stroke:#fff;stroke-miterlimit:10;stroke-width:5px;}.cls-2,.cls-3{fill:#fff;}.cls-3{font-size:23.12px;letter-spacing:0.03em;}.cls-3,.cls-6{font-family:HelveticaNeueCyr-Bold, HelveticaNeueCyr;font-weight:700;}.cls-4{letter-spacing:0.01em;}.cls-5{letter-spacing:0.03em;}.cls-6{font-size:191.42px;fill:#fff4e2;letter-spacing:0.03em;}</style></defs><title>navigation bar</title><circle class="cls-1" cx="59.15" cy="59.15" r="56.65"/><circle class="cls-2" cx="50.69" cy="76.05" r="3.38"/><circle class="cls-2" cx="67.59" cy="76.05" r="3.38"/><path class="cls-2" d="M77.71,49a6.2,6.2,0,0,0-4.43-1.72H48.42L48,43.84a5.61,5.61,0,0,0-5.58-5h-1a2.53,2.53,0,0,0-2.53,2.54h0a2.53,2.53,0,0,0,2.53,2.53h1a.56.56,0,0,1,.55.51l2.53,19.87a5.62,5.62,0,0,0,5.59,5H68.17a9.27,9.27,0,0,0,9-6.83l2.11-7.66A5.91,5.91,0,0,0,77.71,49ZM72.24,61.12a4.23,4.23,0,0,1-4.07,3.1H51.06a.55.55,0,0,1-.55-.5L49.06,52.39H73.53a.84.84,0,0,1,.85.84.85.85,0,0,1,0,.23Z"/><text class="cls-3" transform="translate(7.42 149.91)">p<tspan class="cls-4" x="14.75" y="0">r</tspan><tspan class="cls-5" x="23.95" y="0">oducts</tspan></text><text class="cls-6" transform="translate(-267.68 -27.98)">#FFF4E2</text></svg>