<svg id="Layer_1" data-name="Layer 1" xmlns="http://www.w3.org/2000/svg" viewBox="0 0 113.3 152.36"><defs><style>.cls-1,.cls-3{fill:#fff;}.cls-2{fill:#132759;}.cls-3{font-size:23.12px;letter-spacing:0.03em;}.cls-3,.cls-6{font-family:HelveticaNeueCyr-Bold, HelveticaNeueCyr;font-weight:700;}.cls-4{letter-spacing:0.01em;}.cls-5{letter-spacing:0.03em;}.cls-6{font-size:191.42px;fill:#fff4e2;letter-spacing:0.03em;}</style></defs><title>navigation bar</title><circle class="cls-1" cx="56.65" cy="56.65" r="56.65"/><circle class="cls-2" cx="48.21" cy="73.55" r="3.38"/><circle class="cls-2" cx="65.11" cy="73.54" r="3.38"/><path class="cls-2" d="M75.21,46.52a6.24,6.24,0,0,0-4.43-1.72l-24.86,0-.45-3.49a5.63,5.63,0,0,0-5.59-5h-1a2.54,2.54,0,0,0-2.54,2.54h0a2.54,2.54,0,0,0,2.54,2.53h1a.57.57,0,0,1,.56.51L43,61.82a5.63,5.63,0,0,0,5.59,5H65.68a9.3,9.3,0,0,0,8.95-6.84l2.11-7.66A5.91,5.91,0,0,0,75.21,46.52ZM69.75,58.6a4.25,4.25,0,0,1-4.07,3.11H48.57a.55.55,0,0,1-.55-.51L46.57,49.89l24.47,0a.85.85,0,0,1,.82,1.07Z"/><text class="cls-3" transform="translate(4.92 147.41)">p<tspan class="cls-4" x="14.75" y="0">r</tspan><tspan class="cls-5" x="23.95" y="0">oducts</tspan></text><text class="cls-6" transform="translate(-604.06 -30.48)">#FFF4E2</text></svg>